<svg xmlns="http://www.w3.org/2000/svg" viewBox="0 0 553.85 73.68"><defs><style>.cls-1{fill:#fff;}</style></defs><g id="レイヤー_2" data-name="レイヤー 2"><g id="レイヤー_1-2" data-name="レイヤー 1"><path class="cls-1" d="M30.6,25.92,30.5,38.1l.3,32.16v2.31H0L.4,35.18,0,3.88H53.35A27.28,27.28,0,0,1,57.42,4a1.54,1.54,0,0,1,1.16,1.69c0,1.16-.74,1.74-2.21,1.74H56L30.8,7.15l-.2,15.6,5.48.05,17.62-.3,3.87-.05a7.09,7.09,0,0,1,2.8.35,1.43,1.43,0,0,1,.68,1.41c0,1.31-1.11,2-3.33,2l-4-.1Z"/><path class="cls-1" d="M93,33.22l-.1,19.32.2,20H67.24l.06-2.77.06-10.26.18-18.47L67.3,20.53l-.06-2.92H93.05V28a71.73,71.73,0,0,1,8-7.75q5.22-3.68,9.84-3.67a8.24,8.24,0,0,1,4.65,1.21,3.56,3.56,0,0,1,1.83,3.06,3.08,3.08,0,0,1-1.1,2.42,4.08,4.08,0,0,1-2.77,1,5.62,5.62,0,0,1-2.36-.61,9,9,0,0,0-3.66-1.05,11.67,11.67,0,0,0-7,2.46A37.74,37.74,0,0,0,93,33.22Z"/><path class="cls-1" d="M142,46.7V62.3c0,3,.18,4.94.55,5.74.71,1.54,2.37,2.32,5,2.32a23.45,23.45,0,0,0,11.55-3.2,31.23,31.23,0,0,0,9.88-8.83,15.63,15.63,0,0,1,2-2.37,2,2,0,0,1,1.31-.5,1.78,1.78,0,0,1,1.4.63,2.31,2.31,0,0,1,.56,1.58c0,1.41-1.13,3.31-3.37,5.69a34.11,34.11,0,0,1-11,7.45A31.94,31.94,0,0,1,147,73.68a28.31,28.31,0,0,1-26.27-17.62,28,28,0,0,1-2.26-10.87,29.21,29.21,0,0,1,2-10.49A27.93,27.93,0,0,1,126,25.62a28.45,28.45,0,0,1,9.66-6.95A28.61,28.61,0,0,1,164,21.74q11.78,8.55,11.68,24.81H164l-15.1.05Zm12.88-3.32V28.72c-.06-3.15-.13-5-.2-5.65a3.55,3.55,0,0,0-.7-1.74q-1.41-1.95-5.74-1.95t-5.54,2.26Q142,23,142,28.72V43.38l6.14.2Z"/><path class="cls-1" d="M203.67,46.7V62.3c0,3,.18,4.94.55,5.74.71,1.54,2.37,2.32,5,2.32a23.45,23.45,0,0,0,11.55-3.2,31.23,31.23,0,0,0,9.88-8.83,16.27,16.27,0,0,1,2-2.37,2,2,0,0,1,1.31-.5,1.8,1.8,0,0,1,1.41.63,2.35,2.35,0,0,1,.55,1.58c0,1.41-1.13,3.31-3.37,5.69a34.11,34.11,0,0,1-11,7.45,31.94,31.94,0,0,1-12.81,2.87,28.31,28.31,0,0,1-26.27-17.62,28,28,0,0,1-2.26-10.87,29.21,29.21,0,0,1,2-10.49,27.93,27.93,0,0,1,5.54-9.08,28.45,28.45,0,0,1,9.66-6.95,28.61,28.61,0,0,1,28.33,3.07q11.78,8.55,11.68,24.81H225.66l-15.1.05Zm12.88-3.32V28.72c-.06-3.15-.13-5-.2-5.65a3.55,3.55,0,0,0-.7-1.74q-1.41-1.95-5.74-1.95t-5.54,2.26q-.7,1.35-.7,7.08V43.38l6.14.2Z"/><path class="cls-1" d="M325.12,42.68a18.92,18.92,0,0,1,5.41,5.71,13.1,13.1,0,0,1,1.78,6.67,15.47,15.47,0,0,1-4.48,10.67q-5.47,6-16.5,6.54-6.09.3-17.12.3H269.3l.05-2.36.11-9.77.15-19.22-.21-20.94-.1-16.4h27q10.11,0,13.91.32A36.92,36.92,0,0,1,318,5.79a29.17,29.17,0,0,1,8,4,22.1,22.1,0,0,1,5.79,5.74A19.4,19.4,0,0,1,335,26.42a18.45,18.45,0,0,1-2.67,9.81A16.09,16.09,0,0,1,325.12,42.68ZM321,44a19.24,19.24,0,0,1-4,.46,13.56,13.56,0,0,1-6.41-1.31c-1.63-.87-2.44-2-2.44-3.42,0-.77.26-1.16.8-1.16a4.29,4.29,0,0,1,1.66.5,16.39,16.39,0,0,0,7.55,1.76q7.4,0,11.17-5.83a15,15,0,0,0,2.42-8.41,16.14,16.14,0,0,0-5.59-12.33,23.56,23.56,0,0,0-9.48-5.38A48.62,48.62,0,0,0,302.87,7.2H300.1l-.3,30.19.3,31.86,4.53,0a63.69,63.69,0,0,0,11.68-.83,17.39,17.39,0,0,0,6.94-2.84Q329,61.4,329,55a10,10,0,0,0-2-6A18,18,0,0,0,321,44Z"/><path class="cls-1" d="M369.05,17.61v1.46l-.1,7.85-.1,12.18-.15,18.52L368.9,68l.1,4.53H343.13l.25-18.52.15-16.36-.1-8.6-.15-9.56.05-1.92ZM356,0Q369.3,0,369.3,6.94c0,2.25-1.17,4-3.5,5.26s-5.61,1.89-9.84,1.89q-12.63,0-12.63-7.15Q343.33.1,356,0Z"/><path class="cls-1" d="M406.74,33.22l-.1,19.32.2,20H381L381,69.8l.06-10.26.18-18.47L381,20.53,381,17.61h25.81V28a71.73,71.73,0,0,1,8-7.75q5.22-3.68,9.84-3.67a8.24,8.24,0,0,1,4.65,1.21,3.56,3.56,0,0,1,1.83,3.06,3.08,3.08,0,0,1-1.1,2.42,4.07,4.07,0,0,1-2.76,1,5.62,5.62,0,0,1-2.37-.61,9,9,0,0,0-3.66-1.05,11.67,11.67,0,0,0-7,2.46A37.74,37.74,0,0,0,406.74,33.22Z"/><path class="cls-1" d="M500.85,3.88l-.1,24.6L500.7,45.9l.15,24.41v2.26H475.14V66a28.39,28.39,0,0,1-8,5.89,20.85,20.85,0,0,1-8.73,1.76,24,24,0,0,1-17-7.05q-9.21-8.7-9.21-22.09,0-13,8.91-21.09a25.68,25.68,0,0,1,17.76-7.19,22.32,22.32,0,0,1,8.48,1.66,28,28,0,0,1,7.93,5l-.2-19ZM475.29,27a40.24,40.24,0,0,0-7.07-5.34,11.77,11.77,0,0,0-5.56-1.76,2.6,2.6,0,0,0-2.59,1.38,13.29,13.29,0,0,0-.68,5.21l.05,2.22V62.56a25.49,25.49,0,0,0,.35,5.08,2.73,2.73,0,0,0,2.92,2.16A9.75,9.75,0,0,0,468,67.92a47.31,47.31,0,0,0,7.25-6.57Z"/><path class="cls-1" d="M511.62,63.26a4.31,4.31,0,0,1,2.57,1.52,20.61,20.61,0,0,0,7.15,4.08,25.24,25.24,0,0,0,8.65,1.7,5,5,0,0,0,2.8-.64,2.08,2.08,0,0,0,.93-1.85,5.16,5.16,0,0,0-1.29-2.91q-1.27-1.69-5.71-6.48-10.82-11.58-14-16.28a16.21,16.21,0,0,1-3.2-9,13.28,13.28,0,0,1,2.19-7.22,18.79,18.79,0,0,1,6.11-5.86,27.73,27.73,0,0,1,14.9-4,37,37,0,0,1,13.09,2.61q5.38,2.07,5.38,4.48a1.85,1.85,0,0,1-.63,1.36,2,2,0,0,1-1.43.6c-.64,0-1.83-.62-3.58-1.86a19.51,19.51,0,0,0-11.62-3.82,6.43,6.43,0,0,0-3.35.7,2.38,2.38,0,0,0-1.13,2.17q0,1.71,2.09,4.32A116.88,116.88,0,0,0,540,35.68q6.24,6.09,7.92,8A32.83,32.83,0,0,1,551.18,48a16.83,16.83,0,0,1,2.67,9.16q0,7.76-7.5,12.53-6.14,4-15.1,4a34.8,34.8,0,0,1-17.66-4.43,16.46,16.46,0,0,1-3.1-2.22,2.64,2.64,0,0,1-.83-1.86C509.66,63.93,510.32,63.29,511.62,63.26Z"/></g></g></svg>