<svg xmlns="http://www.w3.org/2000/svg" viewBox="0 0 1056.09 75.64"><defs><style>.cls-1{fill:#fff;}</style></defs><g id="レイヤー_2" data-name="レイヤー 2"><g id="レイヤー_1-2" data-name="レイヤー 1"><path class="cls-1" d="M1.76,61.15A3.24,3.24,0,0,1,3.88,62.5a28,28,0,0,0,9.23,6.62A25.87,25.87,0,0,0,23.9,71.61q5.9,0,5.89-3.57a9,9,0,0,0-2.06-5.11q-2.06-2.85-9.86-11.25Q8,41.06,4.78,35.93.46,29.14.45,23q0-9.26,8.26-15.15,8.1-5.79,20-5.79A34.4,34.4,0,0,1,43.93,5.44a19.8,19.8,0,0,1,4.51,3c1.26,1.15,1.89,2.1,1.89,2.87a1.38,1.38,0,0,1-.53,1,1.62,1.62,0,0,1-1.08.48c-.58,0-1.41-.52-2.52-1.56A21.46,21.46,0,0,0,39.05,7a23.92,23.92,0,0,0-8.5-1.69,7.12,7.12,0,0,0-4.1,1.09,3.25,3.25,0,0,0-1.59,2.79,9.71,9.71,0,0,0,2,5,63.9,63.9,0,0,0,6.64,7.9Q48.27,37.9,51.58,43.38a21.7,21.7,0,0,1,3.48,11.17,16.49,16.49,0,0,1-2.47,8.66,19.42,19.42,0,0,1-6.84,6.69q-8.36,5-20.39,5A33.72,33.72,0,0,1,5.89,69.15Q0,65.11,0,62.86a1.67,1.67,0,0,1,.53-1.19A1.68,1.68,0,0,1,1.76,61.15Z"/><path class="cls-1" d="M97.38,2.06a36.59,36.59,0,0,1,15.35,3.38,35.3,35.3,0,0,1,16.61,15.34,36.85,36.85,0,0,1,4.58,18.07,36.11,36.11,0,0,1-19.63,31.86,36.29,36.29,0,0,1-16.91,4.18,35.31,35.31,0,0,1-17.71-4.74A35.38,35.38,0,0,1,63.81,52.64a36.08,36.08,0,0,1,1.66-31.81A35.47,35.47,0,0,1,81.93,5.49,36.58,36.58,0,0,1,97.38,2.06Zm-4,3.38L93.1,38.2l.25,27.22.05,6.14a18.23,18.23,0,0,0,3.28.31,33.83,33.83,0,0,0,19.88-6.14,32.14,32.14,0,0,0,11.57-14.5,33.72,33.72,0,0,0,2.52-12.83,32.84,32.84,0,0,0-4.23-16.31,31.75,31.75,0,0,0-14.6-13.64A34.41,34.41,0,0,0,97,5.13,20.36,20.36,0,0,0,93.4,5.44Z"/><path class="cls-1" d="M173.12,4.13l-.2,10.51-.2,16.76.05,12.23.2,25.92,3.62,0,21.5-.35,3.92,0c2,0,3,.59,3,1.78a1.57,1.57,0,0,1-1.61,1.74c-.24,0-1,.07-2.31.1H142.17l.15-19.12.1-11.73.1-13.28-.2-20.24.05-4.32Z"/><path class="cls-1" d="M241.87,4.13l-.22,26.07-.09,27.37.16,13.94c1.71.14,3.2.2,4.47.2q17.67,0,23.66-8.2c2-2.82,3.4-6.82,4-12s1-14.6,1-28.26l-.13-13.34-.17-4.12c0-1.75.71-2.62,2.14-2.62,1.26,0,1.88.84,1.88,2.52,0,1-.05,2.3-.15,4l-.4,20.08q-.19,12.69-.45,17.24a64.14,64.14,0,0,1-1,8.53,22.19,22.19,0,0,1-7.19,13.08q-7.2,6.3-24.66,6.3-15.3,0-23.1-4.13-6.15-3.18-8.71-10.72a27.16,27.16,0,0,1-1.36-7.15q-.19-3.68-.25-22.39l-.2-26.37Z"/><path class="cls-1" d="M350.32,37.58V29.16l-.1-13.35-.05-6.09-.05-3.83c0-1.81.62-2.72,1.86-2.72a1.74,1.74,0,0,1,1.54.63,4.7,4.7,0,0,1,.42,2.39v.7c0,.71-.05,1.87-.05,3.48l-.2,17-.15,15.55.13,16.35.17,16.41q-10.36-6.49-30.34-18t-32.36-18l.05,2.47.5,26,.05,3.47c0,1.45-.67,2.17-2,2.17s-2.07-.89-2.07-2.67l0-3.52.05-5.69L288,36.08l-.41-34.77Q308,14,350.32,37.58Z"/><path class="cls-1" d="M400.17,0,440.4,72.82H405.5l-4.86-9.21H383.79l-14.85,0-2.5-.05-3.32,6.15a23.46,23.46,0,0,1-2,3.45,1.86,1.86,0,0,1-1.45.67c-1.15,0-1.72-.51-1.72-1.51a6.68,6.68,0,0,1,1-2.44q1-1.78,6.87-11.75L396.24,6.79ZM384.51,33.06l-8.79,14.79-7,12.19,15,.2,15.05-.2Z"/><path class="cls-1" d="M501.35,60.49V61.9l0,9.66v1.26H470.7l.05-3.07L471,34.37l-.2-16.81-.05-11.42-.05-2h23q14.08,0,21.36,1.2a32.76,32.76,0,0,1,12.21,4.33,27.73,27.73,0,0,1,10.26,11.63,26.87,26.87,0,0,1,2.77,11.93,28.07,28.07,0,0,1-3.12,12.88,26.68,26.68,0,0,1-10.54,11.3,31,31,0,0,1-15.78,4A75.24,75.24,0,0,1,501.35,60.49Zm0-52.94v3.37l-.2,33.62.1,12.53a41.46,41.46,0,0,0,10.31,1.06,26.11,26.11,0,0,0,10.77-2.27A24,24,0,0,0,531,49.47a24.72,24.72,0,0,0,0-32.21,24.19,24.19,0,0,0-10.92-7.4q-6.69-2.31-17.21-2.31Z"/><path class="cls-1" d="M584.91,0l40.24,72.82h-34.9l-4.86-9.21H568.54l-14.85,0-2.51-.05-3.31,6.15a23.17,23.17,0,0,1-2,3.45,1.86,1.86,0,0,1-1.44.67c-1.15,0-1.72-.51-1.72-1.51a6.49,6.49,0,0,1,1-2.44q1-1.78,6.87-11.75L581,6.79ZM569.26,33.06l-8.79,14.79-7,12.19,15,.2L583.5,60Z"/><path class="cls-1" d="M671.64,61.45a58.36,58.36,0,0,0,10.43,5.65,64.16,64.16,0,0,0,12,3.66c1,.2,1.56.7,1.56,1.51,0,1.11-.77,1.66-2.31,1.66q-5.28,0-14.83-4.63a104.15,104.15,0,0,1-18.19-12v2.06l0,8.56v4.88H629.73V70.56l.1-16.41L630,34.52l-.1-30.39H650.1q13.57,0,20.52.75A41.87,41.87,0,0,1,682.43,7.7,26.31,26.31,0,0,1,695,18.62a27.76,27.76,0,0,1-.5,30.35Q686.82,60.7,671.64,61.45Zm-4.78-3.12,2.41.05q10.37,0,17.49-5.79a23.75,23.75,0,0,0,6.94-9.06,24.32,24.32,0,0,0-3.47-25.92,23.54,23.54,0,0,0-11-7.6Q672.7,7.8,660.73,7.65l-.45,33.72v9.11l.05,2.36A64.73,64.73,0,0,0,666.86,58.33Z"/><path class="cls-1" d="M754,7.5l-.26,15.75-.15,15,.15,34.62H723l.3-40.11-.15-13.64L723,7.5l-6.65.15-9.51.2-1.41.05c-1.61,0-2.41-.6-2.41-1.81s.46-1.68,1.41-1.81a16.73,16.73,0,0,1,2.46-.15h61.75a15.9,15.9,0,0,1,3.83.3,1.64,1.64,0,0,1,1,1.71c0,1.14-.85,1.71-2.56,1.71l-4.38-.15L755,7.5Z"/><path class="cls-1" d="M841.45,37.58V29.16l-.1-13.35-.05-6.09,0-3.83c0-1.81.62-2.72,1.86-2.72a1.74,1.74,0,0,1,1.54.63,4.68,4.68,0,0,1,.43,2.39v.7c0,.71-.05,1.87-.05,3.48l-.21,17-.15,15.55.13,16.35L845,75.64q-10.38-6.49-30.35-18t-32.36-18l.05,2.47.5,26,0,3.47c0,1.45-.67,2.17-2,2.17s-2.06-.89-2.06-2.67l.05-3.52,0-5.69.2-25.82-.4-34.77Q799.1,14,841.45,37.58Z"/><path class="cls-1" d="M886.19,26.17c-.07,1.54-.1,3.42-.1,5.64v3l.35,34.72,17.06-.17,12.08-.13c2,0,3,.59,3,1.79A1.53,1.53,0,0,1,917,72.72c-.23,0-1.63.07-4.17.1H855.69l.06-2.62,0-16.8.2-18-.41-31.25h53.35a27.38,27.38,0,0,1,4.08.15A1.51,1.51,0,0,1,914.17,6c0,1.16-.73,1.74-2.21,1.74h-.35l-25.22-.3-.2,15.6,5.49.05,17.61-.3,3.88-.05a7.19,7.19,0,0,1,2.79.35,1.47,1.47,0,0,1,.68,1.43c0,1.33-1.11,2-3.32,2l-4-.12Z"/><path class="cls-1" d="M966.55,61.45A58.36,58.36,0,0,0,977,67.1a64.39,64.39,0,0,0,12,3.66c1,.2,1.56.7,1.56,1.51,0,1.11-.77,1.66-2.31,1.66q-5.28,0-14.83-4.63a104.15,104.15,0,0,1-18.19-12v2.06l0,8.56v4.88H924.64V70.56l.1-16.41.15-19.63-.1-30.39H945q13.57,0,20.52.75A42,42,0,0,1,977.35,7.7a26.33,26.33,0,0,1,12.57,10.92,27.76,27.76,0,0,1-.5,30.35Q981.72,60.7,966.55,61.45Zm-4.78-3.12,2.42.05q10.35,0,17.48-5.79a23.75,23.75,0,0,0,6.94-9.06,24.32,24.32,0,0,0-3.47-25.92A23.51,23.51,0,0,0,974.19,10Q967.6,7.8,955.64,7.65l-.45,33.72v9.11l0,2.36A64.73,64.73,0,0,0,961.77,58.33Z"/><path class="cls-1" d="M1002.8,61.15a3.22,3.22,0,0,1,2.11,1.35,28.13,28.13,0,0,0,9.24,6.62,25.87,25.87,0,0,0,10.79,2.49q5.89,0,5.89-3.57a9.09,9.09,0,0,0-2.06-5.11q-2.07-2.85-9.87-11.25-9.81-10.62-13.08-15.75-4.34-6.8-4.33-12.93,0-9.26,8.25-15.15t20-5.79A34.41,34.41,0,0,1,1045,5.44a19.8,19.8,0,0,1,4.51,3c1.25,1.15,1.88,2.1,1.88,2.87a1.35,1.35,0,0,1-.53,1,1.6,1.6,0,0,1-1.08.48c-.57,0-1.41-.52-2.51-1.56A21.56,21.56,0,0,0,1040.09,7a24,24,0,0,0-8.51-1.69,7.16,7.16,0,0,0-4.1,1.09,3.26,3.26,0,0,0-1.58,2.79,9.71,9.71,0,0,0,2,5,63,63,0,0,0,6.64,7.9q14.8,15.75,18.12,21.23a21.68,21.68,0,0,1,3.47,11.17,16.48,16.48,0,0,1-2.46,8.66,19.53,19.53,0,0,1-6.85,6.69q-8.35,5-20.38,5a33.72,33.72,0,0,1-19.47-5.74q-5.89-4-5.89-6.29a1.66,1.66,0,0,1,.52-1.19A1.72,1.72,0,0,1,1002.8,61.15Z"/></g></g></svg>